<svg width="31" height="31" viewBox="0 0 31 31" fill="none" xmlns="http://www.w3.org/2000/svg">
<path d="M23.2875 5.96234C22.9414 5.96234 22.6031 6.06497 22.3153 6.25726C22.0275 6.44956 21.8032 6.72287 21.6707 7.04264C21.5383 7.36241 21.5036 7.71428 21.5711 8.05374C21.6387 8.39321 21.8053 8.70503 22.0501 8.94977C22.2948 9.19451 22.6067 9.36119 22.9461 9.42871C23.2856 9.49623 23.6375 9.46158 23.9572 9.32912C24.277 9.19667 24.5503 8.97237 24.7426 8.68458C24.9349 8.3968 25.0375 8.05845 25.0375 7.71234C25.0375 7.24821 24.8531 6.80309 24.525 6.4749C24.1968 6.14671 23.7517 5.96234 23.2875 5.96234ZM29.9959 9.4915C29.9675 8.28152 29.7409 7.08438 29.325 5.94775C28.9542 4.97524 28.3771 4.09462 27.6334 3.3665C26.9112 2.619 26.0285 2.04551 25.0521 1.68942C23.9185 1.2609 22.72 1.0291 21.5084 1.004C19.9625 0.916504 19.4667 0.916504 15.5 0.916504C11.5334 0.916504 11.0375 0.916504 9.49169 1.004C8.28004 1.0291 7.08156 1.2609 5.94794 1.68942C4.9733 2.04912 4.09138 2.62211 3.36669 3.3665C2.61918 4.08864 2.04569 4.97131 1.6896 5.94775C1.26109 7.08138 1.02928 8.27985 1.00419 9.4915C0.916687 11.0373 0.916687 11.5332 0.916687 15.4998C0.916687 19.4665 0.916687 19.9623 1.00419 21.5082C1.02928 22.7198 1.26109 23.9183 1.6896 25.0519C2.04569 26.0284 2.61918 26.911 3.36669 27.6332C4.09138 28.3776 4.9733 28.9506 5.94794 29.3102C7.08156 29.7388 8.28004 29.9706 9.49169 29.9957C11.0375 30.0832 11.5334 30.0832 15.5 30.0832C19.4667 30.0832 19.9625 30.0832 21.5084 29.9957C22.72 29.9706 23.9185 29.7388 25.0521 29.3102C26.0285 28.9542 26.9112 28.3807 27.6334 27.6332C28.3804 26.9078 28.958 26.0264 29.325 25.0519C29.7409 23.9153 29.9675 22.7181 29.9959 21.5082C29.9959 19.9623 30.0834 19.4665 30.0834 15.4998C30.0834 11.5332 30.0834 11.0373 29.9959 9.4915ZM27.3709 21.3332C27.3602 22.2589 27.1926 23.1761 26.875 24.0457C26.6422 24.6803 26.2682 25.2538 25.7813 25.7227C25.3083 26.2047 24.736 26.578 24.1042 26.8165C23.2346 27.1341 22.3174 27.3017 21.3917 27.3123C19.9334 27.3852 19.3938 27.3998 15.5584 27.3998C11.7229 27.3998 11.1834 27.3998 9.72502 27.3123C8.76382 27.3303 7.80672 27.1823 6.89585 26.8748C6.29179 26.6241 5.74575 26.2518 5.29169 25.7811C4.80765 25.3126 4.43833 24.7387 4.21252 24.104C3.85648 23.2219 3.659 22.2839 3.62919 21.3332C3.62919 19.8748 3.54169 19.3353 3.54169 15.4998C3.54169 11.6644 3.54169 11.1248 3.62919 9.6665C3.63572 8.72012 3.80849 7.78226 4.1396 6.89567C4.39634 6.28012 4.79041 5.73142 5.29169 5.2915C5.73475 4.79008 6.28232 4.39185 6.89585 4.12484C7.78478 3.80407 8.72168 3.63641 9.66669 3.629C11.125 3.629 11.6646 3.5415 15.5 3.5415C19.3354 3.5415 19.875 3.5415 21.3334 3.629C22.2591 3.63962 23.1763 3.80728 24.0459 4.12484C24.7086 4.37079 25.3034 4.77065 25.7813 5.2915C26.2592 5.73947 26.6326 6.28715 26.875 6.89567C27.1991 7.7837 27.3669 8.72118 27.3709 9.6665C27.4438 11.1248 27.4584 11.6644 27.4584 15.4998C27.4584 19.3353 27.4438 19.8748 27.3709 21.3332ZM15.5 8.01859C14.021 8.02147 12.576 8.46269 11.3476 9.28649C10.1193 10.1103 9.16266 11.2797 8.59865 12.647C8.03465 14.0142 7.88858 15.518 8.17889 16.9683C8.4692 18.4185 9.18287 19.7502 10.2297 20.795C11.2766 21.8398 12.6096 22.5509 14.0604 22.8384C15.5113 23.1259 17.0147 22.9769 18.3809 22.4102C19.7471 21.8435 20.9146 20.8846 21.736 19.6547C22.5575 18.4247 22.9959 16.9789 22.9959 15.4998C22.9978 14.5156 22.8051 13.5407 22.4289 12.6312C22.0527 11.7217 21.5004 10.8956 20.8038 10.2003C20.1072 9.50505 19.2799 8.95437 18.3697 8.57994C17.4595 8.20551 16.4842 8.01474 15.5 8.01859ZM15.5 20.3561C14.5395 20.3561 13.6006 20.0713 12.802 19.5377C12.0034 19.004 11.381 18.2456 11.0134 17.3582C10.6459 16.4709 10.5497 15.4944 10.7371 14.5524C10.9245 13.6104 11.387 12.7451 12.0661 12.0659C12.7453 11.3868 13.6106 10.9243 14.5526 10.7369C15.4946 10.5495 16.4711 10.6457 17.3584 11.0132C18.2458 11.3808 19.0042 12.0032 19.5378 12.8018C20.0715 13.6005 20.3563 14.5394 20.3563 15.4998C20.3563 16.1376 20.2307 16.7691 19.9866 17.3582C19.7426 17.9474 19.3849 18.4828 18.9339 18.9337C18.483 19.3847 17.9476 19.7424 17.3584 19.9864C16.7692 20.2305 16.1378 20.3561 15.5 20.3561Z" fill="white"/>
</svg>
