<svg id="Layer_1" data-name="Layer 1" xmlns="http://www.w3.org/2000/svg" viewBox="0 0 1180.75 538.01"><defs><style>.cls-1{fill:none;stroke:#ea2444;stroke-miterlimit:10;stroke-width:2.04px;}.cls-2{fill:#ea2444;}</style></defs><path class="cls-1" d="M1232.3,575.2H96.48L75,553.77V60.64L96.48,39.23H1232.3l21.44,21.44V553.8Z" transform="translate(-74.01 -38.21)"/><polyline class="cls-2" points="757.74 118.67 725.75 86.68 757.74 54.68 789.73 86.68"/><path class="cls-2" d="M491.68,454.77l-180.93.07V228.65h-85.6s-68.67,6.87-112.32,66C84.94,332.46,89.94,387.46,97.1,422.2a127.76,127.76,0,0,0,24.33,52.53,66.34,66.34,0,0,0,23,18.7c8.89,4.32,11.74,6.63,21.88,6.63h55.4l43.78-43.78H208.1s-55.1-11.13-69.48-79.42S151.38,274.3,151.38,274.3H265.53V500.06L468.6,500l68.33-68.32v-203l-45.25,45.25Z" transform="translate(-74.01 -38.21)"/><rect class="cls-2" x="491.69" y="102.26" width="45.24" height="45.24" transform="translate(-11.67 362.04) rotate(-45)"/><polygon class="cls-2" points="172.32 89.51 204.25 121.44 236.24 89.45 204.25 57.46 172.32 89.4 140.39 57.46 108.4 89.45 140.39 121.44 172.32 89.51"/><polygon class="cls-2" points="1141.61 416.61 1141.61 54.68 1096.36 99.93 1096.36 461.85 1141.61 416.61"/><path class="cls-2" d="M1080.38,138.15V454.77H990.09C990,454.61,962.25,366,928.22,296S858,228.58,858,228.58H763.89l-46.52,46.48h65.28c57.75,0,74.94,12.47,91.81,46,16.49,32.79,51,133.55,51.09,133.71H626.92V92.9l-45.25,45.25V500.06h475.57l68.39-68.39V92.9Z" transform="translate(-74.01 -38.21)"/></svg>