<svg width="1145" height="63" viewBox="0 0 1145 63" fill="none" xmlns="http://www.w3.org/2000/svg">
<g clip-path="url(#clip0)">
<path d="M917.074 62.9972H791.924L785.5 56.5483V6.45746L791.924 0.00860596H917.088L923.514 6.45746V56.5483L917.074 62.9972Z" fill="#FFC431"/>
<path d="M873.343 16.5443L869.959 13.1495L873.343 9.75195L876.724 13.1495" fill="#E41234"/>
<path d="M837.382 48.1674H818.248V24.1638H809.199C809.199 24.1638 801.937 24.8937 797.321 31.168C794.373 35.1752 794.9 41.0258 795.661 44.7097C796.081 46.7407 796.959 48.6482 798.227 50.2855C798.883 51.1237 799.718 51.8027 800.671 52.272C801.609 52.7299 801.911 52.9761 802.983 52.9761H808.842L813.472 48.3277H807.399C807.399 48.3277 801.575 47.1455 800.052 39.8981C798.53 32.6506 801.401 29.0212 801.401 29.0212H813.47V52.9875H834.941L842.166 45.7344V24.1638L837.382 28.9668V48.1674Z" fill="#E41234"/>
<path d="M839.776 9.75306L836.393 13.1493L839.776 16.5455L843.159 13.1493L839.776 9.75306Z" fill="#E41234"/>
<path d="M811.44 13.4501L814.815 16.8391L818.2 13.4444L814.815 10.0468L811.44 13.4387L808.064 10.0468L804.68 13.4444L808.064 16.8391L811.44 13.4501Z" fill="#E41234"/>
<path d="M913.932 48.1731V9.75195L909.147 14.555V52.9761L913.932 48.1731Z" fill="#E41234"/>
<path d="M899.63 14.555V48.1673H890.082C890.082 48.1473 887.14 38.7388 883.542 31.3168C879.943 23.8947 876.111 24.1609 876.111 24.1609H866.164L861.246 29.0899H868.148C874.255 29.0899 876.074 30.4151 877.856 33.9759C879.601 37.4594 883.254 48.153 883.259 48.1731H851.683V9.75195L846.896 14.555V52.9761H897.184L904.415 45.7143V9.75195L899.63 14.555Z" fill="#E41234"/>
</g>
<defs>
<clipPath id="clip0">
<rect width="138" height="63" fill="white" transform="translate(785.5)"/>
</clipPath>
</defs>
</svg>
