<svg xmlns="http://www.w3.org/2000/svg" data-name="Layer 1" viewBox="0 0 64 80" x="0px" y="0px"><title>mission-target-goal-ambition-aim</title><path d="M22.39844,26.79883l1.20312-1.59766a13.99206,13.99206,0,0,1-1.1123-21.46728L21.12988,2.26611a15.99289,15.99289,0,0,0,1.26856,24.53272Z"/><path d="M40.39844,25.20117l1.20312,1.59766A15.99289,15.99289,0,0,0,42.87012,2.26611L41.51074,3.73389a13.99206,13.99206,0,0,1-1.1123,21.46728Z"/><path d="M9,54.77V62H19V55h2.20819a2.89926,2.89926,0,0,0,2.59314-1.60266L28,47l-3-2-3.91034,5.82074A.32433.32433,0,0,1,20.79956,51H17.23a3,3,0,1,0-4.46,0A3.77,3.77,0,0,0,9,54.77Z"/><path d="M47,28l-5,5L32,19,22,33l-4-4L3,44H61ZM35,43H33V41H31v2H29l2-2V32H29l3-6,3,6H33v9Z"/><path d="M44,53.77856V62H56V53.77856A3.77855,3.77855,0,0,0,52.22144,50a2.97209,2.97209,0,0,0,.71032-2.64136A3.00042,3.00042,0,0,0,47,48a2.97764,2.97764,0,0,0,.77856,2A3.77855,3.77855,0,0,0,44,53.77856Z"/><rect x="60" y="60.00342" width="2" height="2"/><path d="M27.27655,23.6076,31,18.39478a1.03551,1.03551,0,0,1,1.627,0l3.81555,5.34179a11.00022,11.00022,0,1,0-9.166-.129ZM30.4549,10.9718,32,7.68l1.5451,3.29181L37,11.49963,34.5,14.062l.59015,3.618L32,15.9718,28.90985,17.68,29.5,14.062,27,11.49963Z"/><text x="0" y="79" fill="#000000" font-size="5px" font-weight="bold" font-family="'Helvetica Neue', Helvetica, Arial-Unicode, Arial, Sans-serif">Created by Nithinan Tatah</text><text x="0" y="84" fill="#000000" font-size="5px" font-weight="bold" font-family="'Helvetica Neue', Helvetica, Arial-Unicode, Arial, Sans-serif">from the Noun Project</text></svg>