<svg width="46" height="46" viewBox="0 0 46 46" fill="none" xmlns="http://www.w3.org/2000/svg">
<path d="M36.0983 14.5658C35.7488 14.2828 35.3271 14.0974 34.878 14.0292C34.4289 13.9611 33.9691 14.0126 33.5478 14.1785L11.5533 22.8204C11.083 23.0088 10.6826 23.3319 10.4053 23.7468C10.1281 24.1618 9.98702 24.649 10.0009 25.1438C10.0149 25.6386 10.1831 26.1176 10.4832 26.5172C10.7834 26.9168 11.2014 27.2181 11.6816 27.3811L16.1306 28.8869L18.6104 36.8674C18.6441 36.9741 18.693 37.0755 18.7556 37.1689C18.7652 37.1832 18.7786 37.1939 18.7887 37.2078C18.8611 37.3062 18.9486 37.3931 19.0482 37.4655C19.0765 37.4865 19.1036 37.5062 19.1339 37.5249C19.2504 37.6001 19.3794 37.6551 19.5152 37.6874L19.5297 37.6886L19.538 37.6921C19.6196 37.7082 19.7028 37.7164 19.7861 37.7166C19.7941 37.7166 19.8012 37.7128 19.8092 37.7127C19.9349 37.7106 20.0596 37.6895 20.1787 37.6502C20.2064 37.641 20.2301 37.6257 20.257 37.6146C20.3459 37.5787 20.43 37.5328 20.5078 37.4777C20.57 37.4267 20.6323 37.3756 20.6946 37.3246L24.011 33.7613L28.9573 37.4903C29.3928 37.8202 29.9288 37.9996 30.4807 38C31.059 37.9993 31.6194 37.8051 32.0681 37.45C32.5167 37.095 32.8263 36.6006 32.9449 36.0497L36.9492 16.9196C37.0399 16.489 37.0087 16.0425 36.8588 15.6279C36.7089 15.2133 36.446 14.8462 36.0983 14.5658ZM20.2727 29.2671C20.1026 29.4321 19.9862 29.6423 19.9383 29.8713L19.5585 31.6677L18.5962 28.5706L23.5855 26.0421L20.2727 29.2671ZM30.4615 35.6019L24.6162 31.1952C24.3717 31.0113 24.0649 30.9238 23.7571 30.9502C23.4492 30.9765 23.1628 31.1148 22.9551 31.3375L21.8929 32.4784L22.2683 30.7029L30.9613 22.243C31.1688 22.0414 31.2952 21.774 31.3177 21.4895C31.3401 21.2049 31.2571 20.922 31.0837 20.6919C30.9102 20.4617 30.6578 20.2997 30.3722 20.235C30.0866 20.1704 29.7866 20.2074 29.5267 20.3394L17.0508 26.661L12.4798 25.0331L34.5449 16.4425L30.4615 35.6019Z" fill="white"/>
</svg>
